<?xml version="1.0" encoding="UTF-8"?>
<!DOCTYPE svg PUBLIC "-//W3C//DTD SVG 1.1//EN" "http://www.w3.org/Graphics/SVG/1.1/DTD/svg11.dtd">
<svg xmlns="http://www.w3.org/2000/svg" version="1.1" width="1280px" height="764px" style="shape-rendering:geometricPrecision; text-rendering:geometricPrecision; image-rendering:optimizeQuality; fill-rule:evenodd; clip-rule:evenodd" xmlns:xlink="http://www.w3.org/1999/xlink">
<g><path style="opacity:1" fill="#fefefe" d="M -0.5,-0.5 C 426.167,-0.5 852.833,-0.5 1279.5,-0.5C 1279.5,254.167 1279.5,508.833 1279.5,763.5C 852.833,763.5 426.167,763.5 -0.5,763.5C -0.5,508.833 -0.5,254.167 -0.5,-0.5 Z"/></g>
<g><path style="opacity:1" fill="#020202" d="M 334.5,114.5 C 335.158,141.598 335.825,168.598 336.5,195.5C 336.5,221.5 336.5,247.5 336.5,273.5C 337.158,300.264 337.825,326.931 338.5,353.5C 338.334,361.84 338.5,370.173 339,378.5C 342.496,394.153 352.329,402.486 368.5,403.5C 368.105,406.686 367.105,409.686 365.5,412.5C 323.5,413.833 281.5,413.833 239.5,412.5C 240.978,409.712 242.311,406.878 243.5,404C 251.183,403.831 258.517,402.164 265.5,399C 273.199,393.437 277.699,385.937 279,376.5C 279.5,355.836 279.667,335.169 279.5,314.5C 243.832,314.333 208.165,314.5 172.5,315C 153.319,337.876 134.985,361.376 117.5,385.5C 115.739,388.996 115.239,392.663 116,396.5C 118.843,399.163 122.009,401.163 125.5,402.5C 129.119,402.881 132.452,403.881 135.5,405.5C 134.634,407.827 133.634,410.161 132.5,412.5C 106.402,413.827 80.4023,413.827 54.5,412.5C 56.2095,409.571 57.5429,406.404 58.5,403C 79.4822,402.758 96.6488,394.591 110,378.5C 179.914,290.901 249.747,203.067 319.5,115C 324.489,114.501 329.489,114.334 334.5,114.5 Z"/></g>
<g><path style="opacity:1" fill="#bebebe" d="M 334.5,114.5 C 336.491,141.146 337.158,168.146 336.5,195.5C 335.825,168.598 335.158,141.598 334.5,114.5 Z"/></g>
<g><path style="opacity:1" fill="#fdfdfd" d="M 278.5,185.5 C 278.5,225.167 278.5,264.833 278.5,304.5C 245.996,304.832 213.662,304.498 181.5,303.5C 212.746,265.058 243.579,226.058 274,186.5C 275.019,185.313 276.186,184.313 277.5,183.5C 278.298,183.957 278.631,184.624 278.5,185.5 Z"/></g>
<g><path style="opacity:1" fill="#060606" d="M 806.5,244.5 C 804.365,242.631 801.698,241.964 798.5,242.5C 799.234,241.292 799.567,239.959 799.5,238.5C 814.532,236.366 829.366,233.366 844,229.5C 844.167,230 844.333,230.5 844.5,231C 823.414,282.483 802.247,333.983 781,385.5C 778.563,391.25 777.396,397.25 777.5,403.5C 780.926,403.728 783.593,402.395 785.5,399.5C 790.634,392.901 794.467,385.568 797,377.5C 798.814,376.24 800.647,376.24 802.5,377.5C 799.716,389.908 793.716,400.408 784.5,409C 775.769,413.625 767.102,413.625 758.5,409C 756.877,406.92 755.377,404.754 754,402.5C 753.582,397.465 753.582,392.465 754,387.5C 748.421,395.746 741.587,402.579 733.5,408C 722.749,413.083 711.749,413.75 700.5,410C 695.016,406.182 691.516,401.015 690,394.5C 689.273,387.144 689.44,379.811 690.5,372.5C 694.602,360.023 699.769,348.023 706,336.5C 711.644,329.924 717.31,323.257 723,316.5C 727.804,313.359 732.304,309.859 736.5,306C 748.388,299.241 761.055,297.241 774.5,300C 778.12,301.953 781.12,304.619 783.5,308C 784.449,308.617 785.282,308.451 786,307.5C 793.529,289.914 800.862,272.248 808,254.5C 808.667,251.5 808.667,248.5 808,245.5C 807.617,244.944 807.117,244.611 806.5,244.5 Z"/></g>
<g><path style="opacity:1" fill="#747474" d="M 798.5,242.5 C 801.698,241.964 804.365,242.631 806.5,244.5C 803.665,243.214 800.832,243.214 798,244.5C 797.308,243.563 797.475,242.897 798.5,242.5 Z"/></g>
<g><path style="opacity:1" fill="#a6a6a6" d="M 336.5,273.5 C 338.491,299.812 339.158,326.479 338.5,353.5C 337.825,326.931 337.158,300.264 336.5,273.5 Z"/></g>
<g><path style="opacity:1" fill="#060606" d="M 437.5,320.5 C 436.519,322.396 435.519,324.396 434.5,326.5C 434.833,326.833 435.167,327.167 435.5,327.5C 436.952,326.06 437.952,324.394 438.5,322.5C 445.935,309.457 456.935,301.29 471.5,298C 480.621,296.821 488.788,298.988 496,304.5C 497.813,308.123 499.313,311.79 500.5,315.5C 500.708,317.92 500.374,320.253 499.5,322.5C 501.467,323.097 502.467,322.097 502.5,319.5C 509.862,308.635 519.862,301.469 532.5,298C 555.881,295.377 565.381,305.544 561,328.5C 551.2,351.093 541.7,373.759 532.5,396.5C 531.067,398.914 530.567,401.581 531,404.5C 533.118,406.707 535.284,406.707 537.5,404.5C 543.182,397.142 547.849,389.142 551.5,380.5C 553.421,379.359 555.421,379.192 557.5,380C 554.584,392.171 548.584,402.504 539.5,411C 528.584,417.577 518.418,416.744 509,408.5C 506.802,394.958 509.802,382.625 518,371.5C 523.613,355.99 529.613,340.656 536,325.5C 540.073,316.135 537.406,309.801 528,306.5C 524.61,308.225 521.11,309.725 517.5,311C 511.59,316.239 506.423,322.072 502,328.5C 495.662,341.176 489.329,353.842 483,366.5C 477.985,381.524 472.152,396.191 465.5,410.5C 456.853,411.665 448.186,411.832 439.5,411C 451.397,382.699 462.897,354.199 474,325.5C 477.624,309.786 471.957,304.786 457,310.5C 451.708,313.458 447.375,317.458 444,322.5C 435.109,336.281 427.776,350.948 422,366.5C 421,367.833 420,369.167 419,370.5C 414.667,384.164 409.501,397.497 403.5,410.5C 394.853,411.665 386.186,411.832 377.5,411C 388.922,382.829 400.422,354.662 412,326.5C 413.803,321.59 415.303,316.59 416.5,311.5C 416.177,306.97 414.177,305.803 410.5,308C 403.628,315.241 398.961,323.741 396.5,333.5C 394.579,334.641 392.579,334.808 390.5,334C 393.577,319.83 400.91,308.497 412.5,300C 419.845,296.669 427.179,296.669 434.5,300C 439.879,306.242 440.879,313.076 437.5,320.5 Z"/></g>
<g><path style="opacity:1" fill="#060606" d="M 628.5,391.5 C 629.339,389.219 630.339,386.885 631.5,384.5C 631.167,384.167 630.833,383.833 630.5,383.5C 629.476,384.852 628.476,386.185 627.5,387.5C 616.212,406.989 599.546,414.822 577.5,411C 574.098,409.6 571.264,407.433 569,404.5C 563.576,394.02 562.243,383.02 565,371.5C 572.79,343.069 588.957,320.902 613.5,305C 626.466,297.282 639.799,296.282 653.5,302C 656.626,304.45 658.959,307.45 660.5,311C 663.062,312.141 665.728,312.974 668.5,313.5C 671.613,312.444 674.613,311.111 677.5,309.5C 680.618,306.093 683.618,302.593 686.5,299C 687.944,298.219 689.277,298.386 690.5,299.5C 677.567,331.132 664.734,362.799 652,394.5C 651.333,396.833 651.333,399.167 652,401.5C 652.561,402.022 653.228,402.355 654,402.5C 663.251,396.358 668.751,387.691 670.5,376.5C 672.527,376.338 674.527,376.505 676.5,377C 674.279,385.717 670.779,393.884 666,401.5C 657.622,412.219 647.122,415.053 634.5,410C 627.946,405.176 625.946,399.009 628.5,391.5 Z"/></g>
<g><path style="opacity:1" fill="#060606" d="M 895.5,297.5 C 902.23,297.226 908.897,297.726 915.5,299C 927.914,302.978 932.747,311.478 930,324.5C 926.861,333.928 921.361,341.761 913.5,348C 893.875,360.985 872.208,367.985 848.5,369C 845.347,377.995 844.847,387.161 847,396.5C 852.565,405.851 860.731,409.017 871.5,406C 891.26,398.958 905.927,386.125 915.5,367.5C 917.604,367.201 919.604,367.534 921.5,368.5C 916.5,375.167 911.5,381.833 906.5,388.5C 896.888,398.613 885.555,406.113 872.5,411C 859.714,414.614 847.048,414.28 834.5,410C 831.734,408.533 829.234,406.7 827,404.5C 817.261,392.176 815.095,378.509 820.5,363.5C 833.597,328.091 858.597,306.091 895.5,297.5 Z"/></g>
<g><path style="opacity:1" fill="#070707" d="M 997.5,389.5 C 999.105,387.692 999.439,385.692 998.5,383.5C 997.295,384.577 996.628,385.91 996.5,387.5C 991.402,394.433 985.402,400.6 978.5,406C 965.664,414.428 952.331,415.428 938.5,409C 930.812,402.053 928.478,393.553 931.5,383.5C 939.705,364.058 948.205,344.724 957,325.5C 958.702,320.727 960.202,315.894 961.5,311C 960.002,307.007 957.669,306.674 954.5,310C 947.528,317.107 943.028,325.607 941,335.5C 939.266,334.751 937.433,334.251 935.5,334C 938.104,324.382 942.271,315.549 948,307.5C 957.754,296.935 968.92,295.102 981.5,302C 986.064,308.362 986.731,315.195 983.5,322.5C 976.596,338.639 969.43,354.639 962,370.5C 959.037,377.556 957.203,384.889 956.5,392.5C 955.217,399.264 957.884,402.597 964.5,402.5C 968.067,402.589 971.4,401.755 974.5,400C 977.228,397.608 980.228,395.608 983.5,394C 989.192,386.314 994.859,378.648 1000.5,371C 1005.45,361.771 1010.11,352.438 1014.5,343C 1019.35,328.959 1024.68,315.126 1030.5,301.5C 1039.15,300.335 1047.81,300.168 1056.5,301C 1047.56,321.154 1039.39,341.654 1032,362.5C 1025.79,374.591 1020.96,387.257 1017.5,400.5C 1018.42,404.777 1020.42,405.443 1023.5,402.5C 1025.82,398.854 1028.48,395.52 1031.5,392.5C 1033.69,387.915 1035.69,383.249 1037.5,378.5C 1039.05,377.548 1040.71,377.215 1042.5,377.5C 1040.24,390.203 1034.24,400.703 1024.5,409C 1014.71,415.452 1005.38,414.952 996.5,407.5C 994.203,401.31 994.536,395.31 997.5,389.5 Z"/></g>
<g><path style="opacity:1" fill="#060606" d="M 1115.5,297.5 C 1124.88,296.841 1133.88,298.341 1142.5,302C 1152.15,310.355 1153.99,320.188 1148,331.5C 1145.75,332.98 1143.25,333.647 1140.5,333.5C 1137.99,333.712 1135.82,333.045 1134,331.5C 1133.94,323.831 1133.94,316.164 1134,308.5C 1129.05,303.91 1123.21,302.41 1116.5,304C 1106.46,304.972 1099.62,310.139 1096,319.5C 1094.33,325.658 1096.16,330.491 1101.5,334C 1111.78,340.388 1121.95,346.888 1132,353.5C 1137.21,362.464 1137.88,371.798 1134,381.5C 1132.33,384.833 1130.67,388.167 1129,391.5C 1123.45,396.374 1117.95,401.374 1112.5,406.5C 1095.6,414.839 1078.44,415.506 1061,408.5C 1050.26,400.612 1046.93,390.279 1051,377.5C 1053.92,369.536 1059.42,365.703 1067.5,366C 1073.12,369.901 1073.96,374.734 1070,380.5C 1063.82,385.975 1061.99,392.641 1064.5,400.5C 1067.2,404.19 1070.87,406.356 1075.5,407C 1085.22,408.501 1094.56,407.334 1103.5,403.5C 1105.52,400.644 1108.02,398.311 1111,396.5C 1117.06,386.407 1115.23,378.24 1105.5,372C 1097.37,367.851 1089.37,363.518 1081.5,359C 1070.24,348.779 1068.41,336.946 1076,323.5C 1081.58,314.917 1088.75,308.084 1097.5,303C 1103.43,300.523 1109.43,298.69 1115.5,297.5 Z"/></g>
<g><path style="opacity:1" fill="#7e7e7e" d="M 278.5,185.5 C 279.499,225.33 279.832,265.33 279.5,305.5C 246.493,305.833 213.493,305.5 180.5,304.5C 180.624,303.893 180.957,303.56 181.5,303.5C 213.662,304.498 245.996,304.832 278.5,304.5C 278.5,264.833 278.5,225.167 278.5,185.5 Z"/></g>
<g><path style="opacity:1" fill="#f9f9f9" d="M 895.5,303.5 C 901.745,302.368 905.912,304.701 908,310.5C 909.574,321.538 907.074,331.538 900.5,340.5C 887.185,357.245 870.185,364.579 849.5,362.5C 855.901,342.938 866.568,326.105 881.5,312C 885.764,308.374 890.431,305.541 895.5,303.5 Z"/></g>
<g><path style="opacity:1" fill="#fafafa" d="M 638.5,305.5 C 646.93,304.544 651.93,308.211 653.5,316.5C 652.523,324.574 650.523,332.407 647.5,340C 642.658,349.513 638.492,359.347 635,369.5C 633.29,372.044 631.79,374.711 630.5,377.5C 625.393,384.114 620.06,390.614 614.5,397C 611.5,398.667 608.5,400.333 605.5,402C 594.631,404.154 589.965,399.654 591.5,388.5C 591.937,377.484 594.103,366.817 598,356.5C 604.81,339.037 614.976,323.87 628.5,311C 632.356,309.91 635.689,308.077 638.5,305.5 Z"/></g>
<g><path style="opacity:1" fill="#fbfbfb" d="M 764.5,305.5 C 773.177,304.179 778.177,307.845 779.5,316.5C 778.791,323.003 777.291,329.336 775,335.5C 769.796,346.58 765.129,357.913 761,369.5C 755.878,377.568 750.378,385.402 744.5,393C 740.689,396.74 736.356,399.74 731.5,402C 720.631,404.154 715.965,399.654 717.5,388.5C 719.387,365.786 726.887,345.119 740,326.5C 746.524,317.468 754.69,310.468 764.5,305.5 Z"/></g>
<g><path style="opacity:1" fill="#575757" d="M 500.5,315.5 C 501.167,316.833 501.833,318.167 502.5,319.5C 502.467,322.097 501.467,323.097 499.5,322.5C 500.374,320.253 500.708,317.92 500.5,315.5 Z"/></g>
<g><path style="opacity:1" fill="#565656" d="M 437.5,320.5 C 437.328,321.492 437.662,322.158 438.5,322.5C 437.952,324.394 436.952,326.06 435.5,327.5C 435.167,327.167 434.833,326.833 434.5,326.5C 435.519,324.396 436.519,322.396 437.5,320.5 Z"/></g>
<g><path style="opacity:1" fill="#7e7e7e" d="M 997.5,389.5 C 997.672,388.508 997.338,387.842 996.5,387.5C 996.628,385.91 997.295,384.577 998.5,383.5C 999.439,385.692 999.105,387.692 997.5,389.5 Z"/></g>
<g><path style="opacity:1" fill="#5f5f5f" d="M 628.5,391.5 C 628.768,389.901 628.434,388.568 627.5,387.5C 628.476,386.185 629.476,384.852 630.5,383.5C 630.833,383.833 631.167,384.167 631.5,384.5C 630.339,386.885 629.339,389.219 628.5,391.5 Z"/></g>
<g><path style="opacity:1" fill="#949494" d="M 532.5,396.5 C 532.373,398.915 532.207,401.249 532,403.5C 533.699,404.406 535.533,404.739 537.5,404.5C 535.284,406.707 533.118,406.707 531,404.5C 530.567,401.581 531.067,398.914 532.5,396.5 Z"/></g>
<g><path style="opacity:1" fill="#777777" d="M 125.5,402.5 C 129.167,402.5 132.833,402.5 136.5,402.5C 136.737,403.791 136.404,404.791 135.5,405.5C 132.452,403.881 129.119,402.881 125.5,402.5 Z"/></g>
<g><path style="opacity:1" fill="#c1c1c1" d="M 54.5,412.5 C 80.4023,413.827 106.402,413.827 132.5,412.5C 119.684,413.833 106.517,414.499 93,414.5C 79.8333,414.167 66.6667,413.833 53.5,413.5C 53.6236,412.893 53.9569,412.56 54.5,412.5 Z"/></g>
<g><path style="opacity:1" fill="#5a5a5a" d="M 861.5,459.5 C 866.749,460.477 867.749,463.143 864.5,467.5C 863.264,468.246 861.93,468.579 860.5,468.5C 860.368,465.43 860.701,462.43 861.5,459.5 Z"/></g>
<g><path style="opacity:1" fill="#636363" d="M 776.5,477.5 C 778.048,477.821 778.715,478.821 778.5,480.5C 775.752,480.598 775.086,479.598 776.5,477.5 Z"/></g>
<g><path style="opacity:1" fill="#5e5e5e" d="M 771.5,508.5 C 772.833,507.833 773.833,506.833 774.5,505.5C 775.64,502.975 776.307,500.308 776.5,497.5C 777.791,497.737 778.791,497.404 779.5,496.5C 781.025,493.437 783.025,490.77 785.5,488.5C 787.515,486.293 788.515,483.626 788.5,480.5C 793.48,475.855 798.48,471.188 803.5,466.5C 808.254,465.056 809.587,466.722 807.5,471.5C 805.96,474.643 803.96,477.476 801.5,480C 804.623,479.279 807.623,477.946 810.5,476C 820.006,474.056 825.006,477.89 825.5,487.5C 824.956,492.315 824.123,496.982 823,501.5C 829.035,498.79 834.535,495.29 839.5,491C 845.776,484.887 851.443,478.387 856.5,471.5C 860.169,473.428 861.336,476.428 860,480.5C 857.799,485.741 854.965,490.574 851.5,495C 849.957,498.338 848.957,501.838 848.5,505.5C 848.39,507.374 849.056,508.874 850.5,510C 856.97,511.427 863.303,510.76 869.5,508C 885.36,499.304 897.36,486.804 905.5,470.5C 910.596,462.609 917.596,459.776 926.5,462C 928.293,463.78 929.96,465.613 931.5,467.5C 934.429,464.679 937.762,463.679 941.5,464.5C 942.631,466.074 942.798,467.741 942,469.5C 938.702,473.8 935.035,477.8 931,481.5C 928.467,485.904 926.467,490.571 925,495.5C 922.379,504.276 925.379,509.61 934,511.5C 941.251,510.194 948.084,507.694 954.5,504C 959.823,498.256 965.656,493.089 972,488.5C 972.684,486.641 973.684,484.974 975,483.5C 982.401,476.854 989.235,469.687 995.5,462C 1001.34,457.487 1007.18,452.987 1013,448.5C 1015.56,447.47 1018.06,446.303 1020.5,445C 1030.92,443.086 1034.75,447.252 1032,457.5C 1023.7,470.587 1014.53,483.087 1004.5,495C 1008.83,492.423 1013.5,490.09 1018.5,488C 1023.08,487.066 1024.58,488.9 1023,493.5C 1019,499.503 1016.17,506.003 1014.5,513C 1014.67,514.167 1014.83,515.333 1015,516.5C 1017.31,516.955 1019.31,517.955 1021,519.5C 1026.58,517.944 1031.74,515.444 1036.5,512C 1047.37,502.798 1057.2,492.632 1066,481.5C 1066.68,473.1 1069.35,465.433 1074,458.5C 1076.9,457.477 1079.06,455.643 1080.5,453C 1087.89,449.301 1095.55,448.634 1103.5,451C 1116.49,459.19 1118.99,470.023 1111,483.5C 1105.15,491.349 1098.65,498.516 1091.5,505C 1096.79,505.262 1101.79,504.095 1106.5,501.5C 1120.42,493.076 1131.92,482.076 1141,468.5C 1139.76,459.071 1141.76,450.404 1147,442.5C 1150.2,437.548 1153.36,437.382 1156.5,442C 1154.72,448.834 1152.05,455.334 1148.5,461.5C 1153.76,478.14 1154.76,494.973 1151.5,512C 1156.99,516.576 1162.65,520.909 1168.5,525C 1175.07,527.864 1181.23,531.364 1187,535.5C 1197.72,540.649 1208.89,542.149 1220.5,540C 1227.05,537.897 1230.71,533.397 1231.5,526.5C 1230.85,518.499 1231.52,518.499 1233.5,526.5C 1232.97,534.411 1228.97,539.578 1221.5,542C 1209.77,544.379 1198.43,543.046 1187.5,538C 1174.47,531.264 1162.3,523.431 1151,514.5C 1147.71,522.442 1141.71,526.442 1133,526.5C 1117.07,524.617 1111.9,516.283 1117.5,501.5C 1121.03,497.707 1125.36,496.54 1130.5,498C 1134.72,501.061 1139.05,503.894 1143.5,506.5C 1145.45,500.993 1145.95,495.326 1145,489.5C 1144.53,483.81 1143.86,478.143 1143,472.5C 1142.59,472.043 1142.09,471.709 1141.5,471.5C 1136.67,477.165 1132.01,482.998 1127.5,489C 1122.03,493.121 1116.53,497.288 1111,501.5C 1103.76,505.69 1095.92,507.857 1087.5,508C 1082.2,511.737 1076.53,514.737 1070.5,517C 1060.67,518.434 1055.34,514.1 1054.5,504C 1055.25,501.846 1055.42,499.68 1055,497.5C 1048.59,505.085 1041.42,511.752 1033.5,517.5C 1028.42,520.031 1023.09,521.197 1017.5,521C 1012.89,518.73 1010.23,515.064 1009.5,510C 1010.96,503.443 1013.29,497.276 1016.5,491.5C 1014.22,491.608 1012.22,492.441 1010.5,494C 1003.88,498.95 997.547,504.283 991.5,510C 990.216,510.684 989.049,510.517 988,509.5C 987.333,507.167 987.333,504.833 988,502.5C 998.417,486.39 1010.08,471.057 1023,456.5C 1025.32,453.52 1026.82,450.187 1027.5,446.5C 1024.39,446.351 1021.39,446.851 1018.5,448C 1014.17,451 1009.83,454 1005.5,457C 995.977,465.525 986.81,474.358 978,483.5C 971.422,493.08 963.255,500.913 953.5,507C 946.082,511.476 938.082,513.476 929.5,513C 922.032,511.864 918.698,507.53 919.5,500C 919.458,495.878 920.124,491.878 921.5,488C 921.167,487.5 920.833,487 920.5,486.5C 916.919,490.874 912.419,493.874 907,495.5C 901.692,494.859 898.692,491.859 898,486.5C 887.314,501.027 873.147,510.027 855.5,513.5C 847.648,514.088 842.982,510.588 841.5,503C 842.506,498.455 843.339,493.955 844,489.5C 836.49,496.187 828.324,501.853 819.5,506.5C 808.495,520.666 794.662,524.333 778,517.5C 772.718,523.216 768.552,529.716 765.5,537C 790.482,534.803 815.482,535.136 840.5,538C 850.812,538.994 860.479,541.994 869.5,547C 876.916,553.335 878.416,560.835 874,569.5C 873.5,569 873,568.5 872.5,568C 877.018,558.196 874.351,551.03 864.5,546.5C 856.81,543.261 848.81,541.094 840.5,540C 815.155,536.761 789.822,536.761 764.5,540C 768.13,543.762 770.297,548.262 771,553.5C 772.474,565.131 770.474,576.131 765,586.5C 759.056,593.864 752.056,595.197 744,590.5C 741.779,587.183 740.612,583.517 740.5,579.5C 742.598,566.372 746.598,553.872 752.5,542C 749.025,541.624 746.025,540.291 743.5,538C 744.337,536.989 744.67,535.822 744.5,534.5C 747.205,534.38 747.872,535.38 746.5,537.5C 749.242,539.987 751.909,539.987 754.5,537.5C 752.833,536.833 751.167,536.167 749.5,535.5C 752.027,534.786 754.527,534.12 757,533.5C 761.369,524.744 766.202,516.411 771.5,508.5 Z"/></g>
<g><path style="opacity:1" fill="#f9f9f9" d="M 810.5,477.5 C 812.924,477.192 815.257,477.526 817.5,478.5C 818.046,479.772 818.379,481.106 818.5,482.5C 816.46,490.896 813.126,498.563 808.5,505.5C 801.746,505.613 795.079,504.947 788.5,503.5C 789.238,499.357 791.071,495.69 794,492.5C 798.772,486.554 804.272,481.554 810.5,477.5 Z"/></g>
<g><path style="opacity:1" fill="#f7f7f7" d="M 922.5,466.5 C 927.172,466.488 929.006,468.822 928,473.5C 923.208,480.626 917.375,486.793 910.5,492C 908.866,492.494 907.199,492.66 905.5,492.5C 907.156,481.183 912.822,472.517 922.5,466.5 Z"/></g>
<g><path style="opacity:1" fill="#fafafa" d="M 1090.5,452.5 C 1103.08,451.259 1110.75,456.592 1113.5,468.5C 1109.51,484.492 1100.51,496.826 1086.5,505.5C 1078.09,503.421 1073.09,498.088 1071.5,489.5C 1076.04,484.692 1081.7,481.859 1088.5,481C 1089.45,480.282 1089.62,479.449 1089,478.5C 1087.15,476.408 1084.81,475.408 1082,475.5C 1078.76,475.849 1075.59,476.515 1072.5,477.5C 1072.51,472.446 1073.68,467.446 1076,462.5C 1080.18,458.136 1085.02,454.802 1090.5,452.5 Z"/></g>
<g><path style="opacity:1" fill="#f6f6f6" d="M 1151.5,440.5 C 1152.69,440.97 1153.36,441.97 1153.5,443.5C 1152.57,448.543 1150.74,453.21 1148,457.5C 1146.68,451.246 1147.85,445.58 1151.5,440.5 Z"/></g>
<g><path style="opacity:1" fill="#f4f4f4" d="M 785.5,488.5 C 783.025,490.77 781.025,493.437 779.5,496.5C 777.897,496.688 776.563,496.188 775.5,495C 778.949,492.518 782.116,489.685 785,486.5C 785.464,487.094 785.631,487.761 785.5,488.5 Z"/></g>
<g><path style="opacity:1" fill="#f8f8f8" d="M 1066.5,492.5 C 1068.49,497.112 1071.49,501.112 1075.5,504.5C 1078,505.964 1080.67,507.131 1083.5,508C 1077.08,512.422 1070.08,514.256 1062.5,513.5C 1061.34,511.927 1060.34,510.261 1059.5,508.5C 1061.24,502.851 1063.57,497.517 1066.5,492.5 Z"/></g>
<g><path style="opacity:1" fill="#d8d8d8" d="M 776.5,497.5 C 776.307,500.308 775.64,502.975 774.5,505.5C 771.753,504.027 770.919,501.694 772,498.5C 773.356,497.62 774.856,497.286 776.5,497.5 Z"/></g>
<g><path style="opacity:1" fill="#fafafa" d="M 1122.5,500.5 C 1125.61,500.351 1128.61,500.851 1131.5,502C 1135.44,504.465 1139.44,506.632 1143.5,508.5C 1139.74,523.14 1131.57,526.473 1119,518.5C 1114.87,511.325 1116.04,505.325 1122.5,500.5 Z"/></g>
<g><path style="opacity:1" fill="#636363" d="M 900.5,502.5 C 903.073,502.148 905.406,502.648 907.5,504C 905.309,508.215 902.643,508.548 899.5,505C 899.743,504.098 900.077,503.265 900.5,502.5 Z"/></g>
<g><path style="opacity:1" fill="#f9f9f9" d="M 785.5,504.5 C 792.025,506.371 798.691,507.538 805.5,508C 802.443,510.723 799.11,513.056 795.5,515C 789.862,517.294 784.529,516.794 779.5,513.5C 781.526,510.482 783.526,507.482 785.5,504.5 Z"/></g>
<g><path style="opacity:1" fill="#707070" d="M 912.5,511.5 C 913.5,511.5 914.5,511.5 915.5,511.5C 915.254,516.511 913.921,517.177 911.5,513.5C 911.863,512.817 912.196,512.15 912.5,511.5 Z"/></g>
<g><path style="opacity:1" fill="#666666" d="M 876.5,512.5 C 877.5,512.5 878.5,512.5 879.5,512.5C 879.473,517.118 878.14,517.952 875.5,515C 876.252,514.329 876.586,513.496 876.5,512.5 Z"/></g>
<g><path style="opacity:1" fill="#696969" d="M 839.5,514.5 C 845.598,515.316 846.098,517.65 841,521.5C 837.056,519.845 836.556,517.512 839.5,514.5 Z"/></g>
<g><path style="opacity:1" fill="#858585" d="M 948.5,515.5 C 950.665,515.116 952.332,515.783 953.5,517.5C 952.332,519.217 950.665,519.884 948.5,519.5C 948.5,518.167 948.5,516.833 948.5,515.5 Z"/></g>
<g><path style="opacity:1" fill="#5a5a5a" d="M 1052.5,518.5 C 1058.55,518.952 1059.05,520.952 1054,524.5C 1052.75,523.789 1051.58,522.956 1050.5,522C 1051.31,520.887 1051.97,519.721 1052.5,518.5 Z"/></g>
<g><path style="opacity:1" fill="#7f7f7f" d="M 1089.5,515.5 C 1090.83,515.5 1092.17,515.5 1093.5,515.5C 1093.77,517.958 1092.77,519.625 1090.5,520.5C 1088.25,519.286 1087.91,517.619 1089.5,515.5 Z"/></g>
<g><path style="opacity:1" fill="#6d6d6d" d="M 850.5,522.5 C 851.833,522.5 853.167,522.5 854.5,522.5C 854.55,524.59 853.55,525.923 851.5,526.5C 849.358,525.563 849.024,524.23 850.5,522.5 Z"/></g>
<g><path style="opacity:1" fill="#5f5f5f" d="M 1064.5,525.5 C 1065.5,525.5 1066.5,525.5 1067.5,525.5C 1067.83,528.5 1066.5,529.833 1063.5,529.5C 1063.43,528.041 1063.77,526.708 1064.5,525.5 Z"/></g>
<g><path style="opacity:1" fill="#fafafa" d="M 762.5,542.5 C 766.456,546.143 768.623,550.809 769,556.5C 770.129,567.315 767.796,577.315 762,586.5C 749.922,595.438 745.255,592.438 748,577.5C 751.216,565.081 756.049,553.414 762.5,542.5 Z"/></g>
<g><path style="opacity:1" fill="#5d5d5d" d="M 727.5,556.5 C 733.493,556.672 734.827,559.172 731.5,564C 728.653,564.944 726.153,564.444 724,562.5C 723.651,559.669 724.817,557.669 727.5,556.5 Z"/></g>
<g><path style="opacity:1" fill="#6a6a6a" d="M 788.5,480.5 C 788.515,483.626 787.515,486.293 785.5,488.5C 785.631,487.761 785.464,487.094 785,486.5C 782.116,489.685 778.949,492.518 775.5,495C 776.563,496.188 777.897,496.688 779.5,496.5C 778.791,497.404 777.791,497.737 776.5,497.5C 774.856,497.286 773.356,497.62 772,498.5C 770.919,501.694 771.753,504.027 774.5,505.5C 773.833,506.833 772.833,507.833 771.5,508.5C 770.507,505.856 769.507,503.19 768.5,500.5C 730.948,532.627 689.948,559.794 645.5,582C 622.92,591.247 599.587,597.58 575.5,601C 548.177,603.752 523.177,597.586 500.5,582.5C 478.275,560.3 477.941,537.633 499.5,514.5C 516.288,503.031 533.955,501.531 552.5,510C 557.625,514.266 558.791,519.099 556,524.5C 554.506,520.541 553.006,516.541 551.5,512.5C 547.639,509.6 543.305,507.767 538.5,507C 506.935,504.238 489.602,518.572 486.5,550C 487.218,565.758 494.551,577.425 508.5,585C 533.236,598.145 559.402,602.312 587,597.5C 600.222,594.236 613.388,590.736 626.5,587C 640.494,580.881 654.494,574.547 668.5,568C 711.675,543.345 751.675,514.178 788.5,480.5 Z"/></g>
<g><path style="opacity:1" fill="#5f5f5f" d="M 615.5,571.5 C 619.634,572.006 620.467,574.006 618,577.5C 615.961,576.022 615.128,574.022 615.5,571.5 Z"/></g>
<g><path style="opacity:1" fill="#656565" d="M 594.5,583.5 C 595.5,583.5 596.5,583.5 597.5,583.5C 597.833,586.5 596.5,587.833 593.5,587.5C 593.433,586.041 593.766,584.708 594.5,583.5 Z"/></g>
<g><path style="opacity:1" fill="#636363" d="M 765.5,592.5 C 769.423,593.983 769.423,595.65 765.5,597.5C 764.334,595.833 764.334,594.166 765.5,592.5 Z"/></g>
<g><path style="opacity:1" fill="#b2b2b2" d="M 720.5,626.5 C 722.5,626.5 724.5,626.5 726.5,626.5C 726.5,628.5 726.5,630.5 726.5,632.5C 724.5,632.5 722.5,632.5 720.5,632.5C 720.5,630.5 720.5,628.5 720.5,626.5 Z"/></g>
<g><path style="opacity:1" fill="#afafaf" d="M 458.5,638.5 C 463.814,637.74 467.647,639.74 470,644.5C 475.823,637.521 482.156,636.854 489,642.5C 489.667,645.5 489.667,648.5 489,651.5C 487.178,659.109 485.678,666.775 484.5,674.5C 482.396,674.799 480.396,674.466 478.5,673.5C 479.95,664.802 481.617,656.135 483.5,647.5C 483.693,644.493 482.36,642.827 479.5,642.5C 474.306,643.527 470.806,646.527 469,651.5C 467.174,659.124 465.674,666.79 464.5,674.5C 462.5,674.5 460.5,674.5 458.5,674.5C 459.972,665.64 461.638,656.807 463.5,648C 463.876,644.881 462.542,643.048 459.5,642.5C 455.632,643.866 452.465,646.2 450,649.5C 447.382,657.665 445.548,665.998 444.5,674.5C 442.5,674.5 440.5,674.5 438.5,674.5C 440.451,663.465 442.617,652.465 445,641.5C 446.754,639.75 448.921,639.083 451.5,639.5C 451.185,641.226 451.019,642.893 451,644.5C 453.134,641.847 455.634,639.847 458.5,638.5 Z"/></g>
<g><path style="opacity:1" fill="#afafaf" d="M 507.5,638.5 C 514.152,637.618 519.985,639.285 525,643.5C 525.667,647.5 525.667,651.5 525,655.5C 522.597,661.712 522.097,668.046 523.5,674.5C 521.473,674.662 519.473,674.495 517.5,674C 516.809,672.933 516.309,671.766 516,670.5C 511.017,674.055 505.517,675.221 499.5,674C 494.777,670.746 493.277,666.246 495,660.5C 496.167,658 498,656.167 500.5,655C 507.125,654.267 513.625,653.1 520,651.5C 521.48,645.638 519.147,642.638 513,642.5C 508.931,643.116 505.764,645.116 503.5,648.5C 496.778,650.26 495.778,648.593 500.5,643.5C 502.618,641.358 504.952,639.692 507.5,638.5 Z"/></g>
<g><path style="opacity:1" fill="#b0b0b0" d="M 979.5,638.5 C 984.424,637.962 988.424,639.629 991.5,643.5C 997.248,637.954 1003.41,637.287 1010,641.5C 1010.67,645.167 1010.67,648.833 1010,652.5C 1008.02,659.706 1006.85,667.039 1006.5,674.5C 1004.08,674.808 1001.74,674.474 999.5,673.5C 1002.6,663.723 1004.1,653.723 1004,643.5C 998.271,642.194 993.937,644.194 991,649.5C 989.117,657.464 987.451,665.464 986,673.5C 983.861,674.769 981.695,674.769 979.5,673.5C 980.251,668.417 981.418,663.417 983,658.5C 984.081,653.53 984.414,648.53 984,643.5C 978.881,642.049 974.881,643.715 972,648.5C 969.187,656.978 967.02,665.645 965.5,674.5C 963.5,674.5 961.5,674.5 959.5,674.5C 961.961,662.863 964.294,651.196 966.5,639.5C 968.5,639.5 970.5,639.5 972.5,639.5C 971.948,641.331 971.948,642.997 972.5,644.5C 974.263,641.73 976.596,639.73 979.5,638.5 Z"/></g>
<g><path style="opacity:1" fill="#b0b0b0" d="M 247.5,639.5 C 249.167,639.5 250.833,639.5 252.5,639.5C 253.267,648.166 254.1,656.833 255,665.5C 258.667,657.167 262.333,648.833 266,640.5C 268.381,639.565 270.881,639.232 273.5,639.5C 274.052,648.492 274.552,657.492 275,666.5C 278.536,657.756 282.369,649.09 286.5,640.5C 288.421,639.359 290.421,639.192 292.5,640C 286.747,651.337 281.414,662.837 276.5,674.5C 274.167,674.5 271.833,674.5 269.5,674.5C 269.776,665.121 269.276,655.788 268,646.5C 264.051,655.396 260.384,664.396 257,673.5C 254.619,674.435 252.119,674.768 249.5,674.5C 249.081,662.817 248.415,651.15 247.5,639.5 Z"/></g>
<g><path style="opacity:1" fill="#b0b0b0" d="M 294.5,639.5 C 296.5,639.5 298.5,639.5 300.5,639.5C 300.887,648.517 301.554,657.517 302.5,666.5C 306.379,657.516 310.046,648.516 313.5,639.5C 316.167,639.5 318.833,639.5 321.5,639.5C 321.334,648.839 321.5,658.173 322,667.5C 326.235,658.689 330.235,649.689 334,640.5C 335.699,639.594 337.533,639.261 339.5,639.5C 334.625,650.92 329.458,662.253 324,673.5C 321.959,674.423 319.792,674.756 317.5,674.5C 316.983,665.172 316.483,655.839 316,646.5C 311.482,655.553 307.649,664.887 304.5,674.5C 302.167,674.5 299.833,674.5 297.5,674.5C 296.747,662.813 295.747,651.146 294.5,639.5 Z"/></g>
<g><path style="opacity:1" fill="#b0b0b0" d="M 342.5,639.5 C 344.5,639.5 346.5,639.5 348.5,639.5C 348.419,648.199 348.919,656.865 350,665.5C 353.919,657.325 357.585,648.991 361,640.5C 363.381,639.565 365.881,639.232 368.5,639.5C 368.8,648.507 369.3,657.507 370,666.5C 373.736,657.792 377.57,649.125 381.5,640.5C 383.5,639.167 385.5,639.167 387.5,640.5C 382.423,651.653 377.09,662.653 371.5,673.5C 369.604,674.466 367.604,674.799 365.5,674.5C 364.851,665.489 364.017,656.489 363,647.5C 359.15,656.04 355.483,664.706 352,673.5C 349.959,674.423 347.792,674.756 345.5,674.5C 344.224,662.859 343.224,651.193 342.5,639.5 Z"/></g>
<g><path style="opacity:1" fill="#b0b0b0" d="M 611.5,639.5 C 613.5,639.5 615.5,639.5 617.5,639.5C 615.521,648.089 613.854,656.755 612.5,665.5C 612.233,668.842 613.733,670.509 617,670.5C 621.619,669.689 625.285,667.356 628,663.5C 630.153,655.555 631.987,647.555 633.5,639.5C 635.604,639.201 637.604,639.534 639.5,640.5C 636.746,651.757 634.413,663.09 632.5,674.5C 630.5,674.5 628.5,674.5 626.5,674.5C 626.762,673.022 626.429,671.689 625.5,670.5C 621.114,674.157 616.114,675.324 610.5,674C 606.741,670.257 605.574,665.757 607,660.5C 608.822,653.554 610.322,646.554 611.5,639.5 Z"/></g>
<g><path style="opacity:1" fill="#b1b1b1" d="M 718.5,639.5 C 720.5,639.5 722.5,639.5 724.5,639.5C 721.784,651.08 719.451,662.747 717.5,674.5C 715.5,674.5 713.5,674.5 711.5,674.5C 713.457,662.717 715.79,651.051 718.5,639.5 Z"/></g>
<g><path style="opacity:1" fill="#b0b0b0" d="M 1088.5,638.5 C 1094.96,637.702 1096.46,639.702 1093,644.5C 1091.87,642.789 1090.37,642.289 1088.5,643C 1086.04,644.458 1083.87,646.291 1082,648.5C 1078.63,656.791 1076.8,665.457 1076.5,674.5C 1074.5,674.5 1072.5,674.5 1070.5,674.5C 1072.66,662.875 1074.66,651.208 1076.5,639.5C 1078.17,639.5 1079.83,639.5 1081.5,639.5C 1081.34,640.873 1081.51,642.207 1082,643.5C 1084.33,641.934 1086.49,640.268 1088.5,638.5 Z"/></g>
<g><path style="opacity:1" fill="#afafaf" d="M 416.5,638.5 C 423.638,637.104 429.472,639.104 434,644.5C 434.277,651.311 433.277,657.978 431,664.5C 430.502,667.482 430.335,670.482 430.5,673.5C 428.833,673.5 427.167,673.5 425.5,673.5C 425.719,672.325 425.386,671.325 424.5,670.5C 419.429,674.255 413.763,675.422 407.5,674C 400.565,667.183 400.898,660.85 408.5,655C 415.173,654.1 421.839,653.266 428.5,652.5C 428.211,642.516 423.545,640.016 414.5,645C 412.739,649.296 409.739,650.463 405.5,648.5C 407.964,643.696 411.631,640.363 416.5,638.5 Z"/></g>
<g><path style="opacity:1" fill="#afafaf" d="M 692.5,638.5 C 706.132,639.041 710.966,646.041 707,659.5C 704.256,670.433 697.423,675.267 686.5,674C 684.983,672.315 683.316,670.815 681.5,669.5C 680.059,675.15 678.726,680.817 677.5,686.5C 675.833,686.5 674.167,686.5 672.5,686.5C 675.01,671.122 677.844,655.788 681,640.5C 682.699,639.594 684.533,639.261 686.5,639.5C 686.281,640.675 686.614,641.675 687.5,642.5C 689.21,641.113 690.877,639.779 692.5,638.5 Z"/></g>
<g><path style="opacity:1" fill="#b0b0b0" d="M 784.5,638.5 C 794.678,637.85 798.511,642.517 796,652.5C 793.96,659.743 792.46,667.076 791.5,674.5C 789.5,674.5 787.5,674.5 785.5,674.5C 787.217,665.698 788.884,656.865 790.5,648C 790.811,644.647 789.311,642.813 786,642.5C 781.9,643.217 778.567,645.217 776,648.5C 772.629,656.854 770.462,665.521 769.5,674.5C 767.5,674.5 765.5,674.5 763.5,674.5C 765.512,662.762 767.845,651.096 770.5,639.5C 772.167,639.5 773.833,639.5 775.5,639.5C 775.34,641.199 775.506,642.866 776,644.5C 778.671,642.098 781.505,640.098 784.5,638.5 Z"/></g>
<g><path style="opacity:1" fill="#afafaf" d="M 815.5,638.5 C 826.934,637.284 833.267,642.284 834.5,653.5C 833.138,669.041 824.804,675.874 809.5,674C 803.838,670.845 801.172,666.012 801.5,659.5C 801.951,649.574 806.618,642.574 815.5,638.5 Z"/></g>
<g><path style="opacity:1" fill="#afafaf" d="M 937.5,638.5 C 955.284,639.035 960.784,647.702 954,664.5C 947.846,674.736 939.346,677.236 928.5,672C 926.959,670.421 925.792,668.587 925,666.5C 921.928,653.66 926.095,644.327 937.5,638.5 Z"/></g>
<g><path style="opacity:1" fill="#fbfbfb" d="M 692.5,642.5 C 698.825,642.825 702.158,646.158 702.5,652.5C 702.193,658.935 699.86,664.435 695.5,669C 687.487,671.819 683.487,668.986 683.5,660.5C 683.346,652.807 686.346,646.807 692.5,642.5 Z"/></g>
<g><path style="opacity:1" fill="#fbfbfb" d="M 817.5,642.5 C 828.486,643.978 831.653,649.978 827,660.5C 823.98,669.18 818.313,671.847 810,668.5C 805.381,657.626 807.881,648.96 817.5,642.5 Z"/></g>
<g><path style="opacity:1" fill="#fbfbfb" d="M 939.5,642.5 C 949.351,642.87 952.851,647.87 950,657.5C 948.437,667.261 942.937,671.261 933.5,669.5C 928.668,663.294 928.168,656.628 932,649.5C 934.069,646.594 936.569,644.261 939.5,642.5 Z"/></g>
<g><path style="opacity:1" fill="#afafaf" d="M 561.5,626.5 C 563.5,626.5 565.5,626.5 567.5,626.5C 564.283,642.471 561.283,658.471 558.5,674.5C 556.5,674.5 554.5,674.5 552.5,674.5C 552.719,673.325 552.386,672.325 551.5,671.5C 546.743,674.72 541.743,675.22 536.5,673C 530.022,663.971 529.855,654.804 536,645.5C 542.734,637.106 550.067,636.439 558,643.5C 559.597,637.914 560.764,632.247 561.5,626.5 Z"/></g>
<g><path style="opacity:1" fill="#fbfbfb" d="M 546.5,642.5 C 552.825,642.825 556.158,646.158 556.5,652.5C 556.087,658.354 554.087,663.52 550.5,668C 541.713,672.265 537.38,669.432 537.5,659.5C 537.632,652.232 540.632,646.565 546.5,642.5 Z"/></g>
<g><path style="opacity:1" fill="#aeaeae" d="M 583.5,638.5 C 596.607,638.671 602.274,645.338 600.5,658.5C 591.833,658.5 583.167,658.5 574.5,658.5C 573.722,668.566 578.055,672.066 587.5,669C 589.923,667.429 591.256,665.263 591.5,662.5C 593.857,662.337 596.19,662.503 598.5,663C 593.022,674.249 584.688,677.249 573.5,672C 566.356,661.286 567.356,651.286 576.5,642C 578.713,640.384 581.047,639.217 583.5,638.5 Z"/></g>
<g><path style="opacity:1" fill="#f9f9f9" d="M 584.5,642.5 C 592.478,642.486 595.811,646.486 594.5,654.5C 588.132,654.83 581.798,654.496 575.5,653.5C 576.869,648.391 579.869,644.724 584.5,642.5 Z"/></g>
<g><path style="opacity:1" fill="#b0b0b0" d="M 904.5,638.5 C 911.561,637.456 917.061,639.79 921,645.5C 921.494,647.134 921.66,648.801 921.5,650.5C 919.5,650.833 917.5,651.167 915.5,651.5C 914.386,642.943 910.052,640.776 902.5,645C 897.734,651.372 896.234,658.538 898,666.5C 902.156,671.757 906.489,671.757 911,666.5C 912.009,664.975 912.509,663.308 912.5,661.5C 919.244,660.41 920.744,662.41 917,667.5C 912.441,674.077 906.274,676.243 898.5,674C 895.667,672.5 893.5,670.333 892,667.5C 888.836,654.318 893.002,644.652 904.5,638.5 Z"/></g>
<g><path style="opacity:1" fill="#b0b0b0" d="M 1048.5,638.5 C 1054.8,637.781 1060.3,639.447 1065,643.5C 1064.18,653.798 1063.34,664.131 1062.5,674.5C 1060.5,674.5 1058.5,674.5 1056.5,674.5C 1056.76,673.022 1056.43,671.689 1055.5,670.5C 1049.12,675.233 1042.62,675.566 1036,671.5C 1031.71,664.415 1033.21,658.915 1040.5,655C 1046.81,653.903 1053.14,653.07 1059.5,652.5C 1060.56,644.725 1057.22,641.558 1049.5,643C 1046.59,645.421 1043.59,647.588 1040.5,649.5C 1039.5,649.167 1038.5,648.833 1037.5,648.5C 1039.42,643.07 1043.09,639.736 1048.5,638.5 Z"/></g>
<g><path style="opacity:1" fill="#b0b0b0" d="M 655.5,638.5 C 661.588,637.641 666.755,639.307 671,643.5C 672.128,645.345 672.628,647.345 672.5,649.5C 670.5,649.5 668.5,649.5 666.5,649.5C 665.079,643.782 661.412,641.616 655.5,643C 651.5,646 651.5,649 655.5,652C 660.532,653.598 665.032,656.098 669,659.5C 671.368,665.268 669.868,669.768 664.5,673C 659.572,674.418 654.572,674.751 649.5,674C 644.244,671.995 641.578,668.161 641.5,662.5C 645.751,661.73 648.251,663.397 649,667.5C 653.215,671.038 657.715,671.372 662.5,668.5C 663.833,666.5 663.833,664.5 662.5,662.5C 658.669,660.083 654.669,657.917 650.5,656C 644.16,647.868 645.827,642.035 655.5,638.5 Z"/></g>
<g><path style="opacity:1" fill="#b0b0b0" d="M 741.5,638.5 C 748.427,637.68 754.26,639.68 759,644.5C 757.274,654.349 756.44,664.349 756.5,674.5C 754.5,674.5 752.5,674.5 750.5,674.5C 750.688,672.897 750.188,671.563 749,670.5C 744.139,674.284 738.639,675.451 732.5,674C 727.919,670.562 726.419,666.062 728,660.5C 729.167,658 731,656.167 733.5,655C 740.117,653.777 746.783,652.944 753.5,652.5C 754.368,644.252 750.702,641.085 742.5,643C 740.024,644.309 738.024,646.142 736.5,648.5C 734.5,649.833 732.5,649.833 730.5,648.5C 732.996,643.66 736.663,640.327 741.5,638.5 Z"/></g>
<g><path style="opacity:1" fill="#fbfbfb" d="M 424.5,656.5 C 426.767,664.341 423.434,669.007 414.5,670.5C 409.21,669.696 407.377,666.696 409,661.5C 409.308,660.692 409.808,660.025 410.5,659.5C 415.207,658.109 419.874,657.109 424.5,656.5 Z"/></g>
<g><path style="opacity:1" fill="#fafafa" d="M 512.5,656.5 C 514.604,656.201 516.604,656.534 518.5,657.5C 517.519,666.657 512.519,670.824 503.5,670C 500.651,667.441 499.817,664.274 501,660.5C 504.647,658.308 508.481,656.975 512.5,656.5 Z"/></g>
<g><path style="opacity:1" fill="#fbfbfb" d="M 750.5,656.5 C 751.502,664.7 747.668,669.366 739,670.5C 733.977,669.458 732.31,666.458 734,661.5C 734.308,660.692 734.808,660.025 735.5,659.5C 740.539,658.085 745.539,657.085 750.5,656.5 Z"/></g>
<g><path style="opacity:1" fill="#afafaf" d="M 850.5,638.5 C 857.386,637.674 863.22,639.674 868,644.5C 868.494,646.134 868.66,647.801 868.5,649.5C 864.881,649.956 862.548,648.456 861.5,645C 857.122,641.513 852.955,641.68 849,645.5C 848.175,647.701 848.675,649.534 850.5,651C 855.744,653.203 860.578,656.036 865,659.5C 867.292,666.281 865.125,671.114 858.5,674C 852.574,675.11 846.908,674.444 841.5,672C 838.971,669.358 837.971,666.192 838.5,662.5C 842.825,662.102 845.325,664.102 846,668.5C 850.883,671.279 855.55,670.946 860,667.5C 860.667,666.167 860.667,664.833 860,663.5C 855.545,660.023 850.712,657.189 845.5,655C 840.769,647.564 842.436,642.064 850.5,638.5 Z"/></g>
<g><path style="opacity:1" fill="#f9f9f9" d="M 1056.5,656.5 C 1057.38,656.369 1058.04,656.702 1058.5,657.5C 1057.8,665.538 1053.46,669.872 1045.5,670.5C 1039.31,668.905 1037.98,665.405 1041.5,660C 1042.83,659.333 1044.17,658.667 1045.5,658C 1049.36,657.823 1053.02,657.323 1056.5,656.5 Z"/></g>
<g><path style="opacity:1" fill="#b4b4b4" d="M 385.5,668.5 C 387.833,668.5 390.167,668.5 392.5,668.5C 392.167,670.5 391.833,672.5 391.5,674.5C 389.167,674.5 386.833,674.5 384.5,674.5C 384.833,672.5 385.167,670.5 385.5,668.5 Z"/></g>
<g><path style="opacity:1" fill="#b3b3b3" d="M 873.5,668.5 C 875.924,668.192 878.257,668.526 880.5,669.5C 879.691,671.071 879.357,672.738 879.5,674.5C 877.167,674.5 874.833,674.5 872.5,674.5C 872.517,672.435 872.85,670.435 873.5,668.5 Z"/></g>
<g><path style="opacity:1" fill="#b3b3b3" d="M 1017.5,668.5 C 1019.5,668.5 1021.5,668.5 1023.5,668.5C 1024.26,673.906 1021.93,675.906 1016.5,674.5C 1016.33,672.379 1016.66,670.379 1017.5,668.5 Z"/></g>
</svg>
